<svg xmlns="http://www.w3.org/2000/svg" width="256" height="256" viewBox="0 0 256 256">
  <defs>
    <radialGradient id="g" cx="30%" cy="25%" r="70%">
      <stop offset="0%" stop-color="#ff7aa2"></stop>
      <stop offset="55%" stop-color="#ff3b6a"></stop>
      <stop offset="100%" stop-color="#b8143c"></stop>
    </radialGradient>
    <filter id="s" x="-20%" y="-20%" width="140%" height="140%">
      <feDropShadow dx="0" dy="14" stdDeviation="12" flood-color="#000" flood-opacity=".35"></feDropShadow>
    </filter>
  </defs>
  <g filter="url(#s)">
    <path fill="url(#g)" d="M128 28c20 0 40 12 52 30 11 17 14 39 4 59-6 13-17 23-31 28 16 4 29 16 33 32 6 24-6 52-33 64-10 4-22 7-35 7s-25-3-35-7c-27-12-39-40-33-64 4-16 17-28 33-32-14-5-25-15-31-28-10-20-7-42 4-59 12-18 32-30 52-30z"></path>
    <path fill="rgba(255,255,255,.18)" d="M96 76c10-12 22-18 32-18 11 0 22 6 33 18-7-2-15-3-25-3-9 0-18 1-25 3z"></path>
  </g>
</svg>
